# xmcd CD database file
#
# Track frame offsets:
#	150
#	12463
#	24751
#	43031
#	61309
#	74216
#	87127
#	102225
#	117284
#	129684
#	142068
#	158373
#	174730
#	192004
#	209253
#	223642
#	238095
#	251126
#	264152
#	274989
#	285947
#
# Disc length: 3831 seconds
#
# Revision: 0
# Processed by: cddbd v1.5.1PL0 Copyright (c) Steve Scherf et al.
# Submitted via: CDex 1.51
#
DISCID=350ef515
DTITLE=Hal Leonard - Latin Jazz - vol 23
DYEAR=1900
DGENRE=Jazz
TTITLE0=Aqua De Beber - split
TTITLE1=Aqua De Beber
TTITLE2=Invitation - split
TTITLE3=Invitation
TTITLE4=Chega De Saudade - split
TTITLE5=Chega De Saudade
TTITLE6=Watch What Happens - split
TTITLE7=Watch What Happens
TTITLE8=Sweet Happy Life - split
TTITLE9=Sweet Happy Life
TTITLE10=The Gift! - split
TTITLE11=The Gift!
TTITLE12=Mas Que Nada - split
TTITLE13=Mas Que Nada
TTITLE14=Manha De Carnaval - split
TTITLE15=Manha De Carnaval
TTITLE16=So Nice (Summer Samba) - split
TTITLE17=So Nice (Summer Samba)
TTITLE18=Ran Kan Kan - split
TTITLE19=Ran Kan Kan
TTITLE20=Bb Tuning Notes
EXTD=
EXTT0=
EXTT1=
EXTT2=
EXTT3=
EXTT4=
EXTT5=
EXTT6=
EXTT7=
EXTT8=
EXTT9=
EXTT10=
EXTT11=
EXTT12=
EXTT13=
EXTT14=
EXTT15=
EXTT16=
EXTT17=
EXTT18=
EXTT19=
EXTT20=
PLAYORDER=
